<?xml version="1.0" encoding="UTF-8" standalone="no"?>
<!-- Created with Inkscape (http://www.inkscape.org/) -->

<svg
   width="1080mm"
   height="1080mm"
   viewBox="0 0 1080 1080"
   version="1.1"
   id="svg1"
   inkscape:version="1.4.3 (0d15f75, 2025-12-25)"
   sodipodi:docname="eurologo.svg"
   xmlns:inkscape="http://www.inkscape.org/namespaces/inkscape"
   xmlns:sodipodi="http://sodipodi.sourceforge.net/DTD/sodipodi-0.dtd"
   xmlns="http://www.w3.org/2000/svg"
   xmlns:svg="http://www.w3.org/2000/svg">
  <sodipodi:namedview
     id="namedview1"
     pagecolor="#ffffff"
     bordercolor="#000000"
     borderopacity="0.25"
     inkscape:showpageshadow="2"
     inkscape:pageopacity="0.0"
     inkscape:pagecheckerboard="0"
     inkscape:deskcolor="#d1d1d1"
     inkscape:document-units="mm"
     inkscape:zoom="0.1634747"
     inkscape:cx="2327.5773"
     inkscape:cy="1590.4601"
     inkscape:window-width="1908"
     inkscape:window-height="1042"
     inkscape:window-x="0"
     inkscape:window-y="0"
     inkscape:window-maximized="1"
     inkscape:current-layer="layer1" />
  <defs
     id="defs1" />
  <g
     inkscape:label="Layer 1"
     inkscape:groupmode="layer"
     id="layer1">
    <path
       style="font-size:374.867px;line-height:0px;font-family:'English111 Vivace BT';-inkscape-font-specification:'English111 Vivace BT';fill:#8c1d20;stroke-width:0.782201"
       d="m 310.89733,454.61913 c 30.01865,-5.36919 55.88838,-15.61946 77.60919,-30.75081 21.72081,-15.13135 32.58121,-28.98141 32.58121,-41.5502 0,-4.14891 -1.46432,-7.32161 -4.39297,-9.5181 -2.92865,-2.19649 -7.13858,-3.29473 -12.6298,-3.29473 -6.22337,0 -13.97209,1.89142 -23.24614,5.67425 -9.15203,3.78284 -18.4871,9.03 -28.00521,15.74149 5.61325,5.97932 9.57913,10.61635 11.89764,13.91108 2.31851,3.29473 3.47777,5.91831 3.47777,7.87074 0,0.48811 -0.12203,0.85419 -0.36608,1.09825 -0.12203,0.24405 -0.24405,0.36608 -0.36608,0.36608 -1.58635,0 -4.27095,-2.44054 -8.05379,-7.32163 -3.78283,-4.88108 -7.38263,-8.96898 -10.79939,-12.26371 -11.71459,7.19959 -20.92763,16.10757 -27.63912,26.72392 -6.71149,10.49432 -10.06723,21.35472 -10.06723,32.58121 z m -20.3175,1.46433 c -0.73216,-2.31851 -1.28128,-4.45399 -1.64736,-6.40642 -0.36608,-1.95243 -0.54912,-3.78284 -0.54912,-5.49122 0,-10.49432 4.0879,-20.92763 12.26371,-31.29993 8.29784,-10.37229 20.19548,-19.95141 35.69291,-28.73736 -9.27405,-7.19959 -19.09723,-12.6298 -29.46953,-16.29061 -10.25027,-3.66081 -20.92763,-5.49121 -32.03209,-5.49121 -18.42608,0 -33.74047,4.45398 -45.94317,13.36195 -12.08068,8.78595 -18.12102,19.70737 -18.12102,32.76426 0,13.05689 6.52845,24.46642 19.58534,34.22858 13.17892,9.64013 28.73737,14.4602 46.67534,14.4602 1.34229,0 3.59979,-0.12203 6.77249,-0.36608 3.17271,-0.36608 5.43021,-0.61013 6.7725,-0.73216 z M 271.9097,636.37838 h -2.01345 c -19.03621,0 -33.92351,-4.82007 -44.66188,-14.4602 -10.61635,-9.76217 -15.92453,-23.18514 -15.92453,-40.26892 0,-23.30716 9.09101,-43.8077 27.27304,-61.50162 18.18203,-17.81594 43.68567,-30.93384 76.51094,-39.35371 -3.53879,-1.70838 -6.65048,-3.5998 -9.33507,-5.67426 -2.56257,-2.19649 -4.69804,-4.63703 -6.40642,-7.32162 -4.88108,0.61013 -9.33506,1.09824 -13.36195,1.46433 -3.90487,0.24405 -7.44365,0.36608 -10.61636,0.36608 -22.20891,0 -39.90283,-4.82007 -53.08175,-14.46021 -13.17892,-9.76216 -19.76838,-22.69702 -19.76838,-38.80459 0,-16.96175 7.01655,-31.05587 21.04966,-42.28236 14.03311,-11.34851 31.78805,-17.02277 53.2648,-17.02277 12.2027,0 23.85628,2.01345 34.96074,6.04034 11.22649,3.90487 21.78182,9.82318 31.66601,17.75493 11.71459,-5.24716 22.75804,-9.27405 33.13034,-12.08068 10.49432,-2.80662 19.70736,-4.20993 27.63912,-4.20993 7.80973,0 13.85006,1.58635 18.12101,4.75906 4.39297,3.1727 6.58946,7.50466 6.58946,12.99587 0,12.93487 -11.04345,27.63912 -33.13034,44.11277 -21.96486,16.35162 -49.2379,29.22547 -81.81911,38.62155 1.58635,4.88108 3.96587,8.29784 7.13858,10.25027 3.1727,1.95243 8.17581,2.92865 15.00932,2.92865 1.09824,0 2.80662,-0.12203 5.12514,-0.36608 2.44054,-0.24405 4.20993,-0.36608 5.30817,-0.36608 3.1727,0 5.61324,0.54912 7.32162,1.64736 1.83041,1.09825 2.74561,2.56257 2.74561,4.39298 0,1.70837 -0.79318,3.05067 -2.37953,4.02689 -1.58635,0.97621 -3.78283,1.46432 -6.58946,1.46432 -3.41675,0 -7.74871,-0.61013 -12.99587,-1.8304 -5.12514,-1.22027 -8.5419,-1.83041 -10.25027,-1.83041 -5.8573,0 -13.42298,2.07446 -22.69703,6.22338 -9.27405,4.14892 -17.93797,9.57912 -25.99175,16.29061 -12.08068,10.00621 -21.47676,21.78182 -28.18825,35.32682 -6.71149,13.545 -10.06723,27.51709 -10.06723,41.91628 0,12.2027 3.23372,22.39196 9.70115,30.56777 6.46743,8.17581 14.94831,12.81283 25.44264,13.91108 0,-0.85419 -0.061,-2.56257 -0.18304,-5.12514 -0.12203,-2.56257 -0.18304,-4.57601 -0.18304,-6.04033 0,-29.04243 6.95554,-53.44784 20.86662,-73.21621 14.03311,-19.89041 30.56777,-29.83561 49.60398,-29.83561 9.03,0 16.35162,2.86763 21.96486,8.6029 5.61325,5.61325 8.41987,12.87386 8.41987,21.78183 0,22.20891 -8.78595,42.0383 -26.35784,59.48817 -17.57189,17.32783 -39.78081,27.70013 -66.62675,31.11689 0.73216,6.83351 1.89142,13.72804 3.47777,20.68358 1.70838,7.07757 2.56257,10.92142 2.56257,11.53155 0,0.73217 -0.12203,1.3423 -0.36609,1.83041 -0.24405,0.61013 -0.48811,0.9152 -0.73216,0.9152 -1.58635,0 -3.29472,-2.74561 -5.12513,-8.23682 -1.70838,-5.36919 -3.72183,-14.27717 -6.04034,-26.72392 z m 5.8573,-6.40642 h 3.84385 c 7.6877,0 15.49743,-1.46432 23.42919,-4.39297 7.93175,-2.92865 15.74148,-7.32163 23.42918,-13.17892 11.34851,-8.41987 20.43953,-18.54811 27.27304,-30.38473 6.83351,-11.83662 10.25027,-23.30716 10.25027,-34.41162 0,-7.80973 -1.8304,-13.85006 -5.49121,-18.12101 -3.66081,-4.39297 -8.72494,-6.58946 -15.19237,-6.58946 -6.95554,0 -14.39919,2.74561 -22.33094,8.23682 -7.93176,5.49122 -15.37541,13.11791 -22.33095,22.88007 -7.07757,10.00621 -12.69081,21.04966 -16.83973,33.13034 -4.02689,12.08067 -6.04033,23.4902 -6.04033,34.22858 z m 172.75901,-28.0052 -0.54912,0.9152 c -6.58946,10.49433 -9.88419,17.57189 -9.88419,21.2327 0,2.19649 0.48811,3.90487 1.46432,5.12514 0.97622,1.09824 2.44054,1.64736 4.39297,1.64736 3.29473,0 8.1148,-2.50155 14.46021,-7.50466 6.46743,-5.12513 15.19236,-13.30094 26.17479,-24.52743 3.05068,-3.05067 6.34541,-6.71148 9.88419,-10.98243 3.66081,-4.39297 6.10135,-6.58946 7.32162,-6.58946 0.61013,0 1.09824,0.18304 1.46433,0.54912 0.48811,0.24405 0.73216,0.54912 0.73216,0.9152 0,1.22027 -0.9152,2.98967 -2.74561,5.30818 -1.70838,2.31851 -5.67426,6.71149 -11.89763,13.17892 -10.98243,11.59257 -20.37852,20.37851 -28.18825,26.35783 -7.6877,5.8573 -13.545,8.78595 -17.57189,8.78595 -5.24716,0 -9.5181,-2.31851 -12.81283,-6.95554 -3.17271,-4.75905 -4.75906,-10.92142 -4.75906,-18.48709 0,-1.3423 0.12203,-2.86764 0.36608,-4.57602 0.24405,-1.70838 0.61014,-3.78284 1.09825,-6.22338 -10.00622,11.59257 -19.28027,20.56155 -27.82216,26.90696 -8.41987,6.22338 -15.49744,9.33507 -21.23271,9.33507 -6.22337,0 -11.22648,-2.13547 -15.00932,-6.40642 -3.78283,-4.27095 -5.67425,-10.00622 -5.67425,-17.20581 0,-9.88419 9.21304,-28.61533 27.63912,-56.19344 l 2.7456,-4.02689 c -6.71149,6.58946 -13.72804,14.09412 -21.04966,22.51398 -7.32162,8.41987 -11.65358,12.6298 -12.99588,12.6298 -0.48811,0 -0.9152,-0.061 -1.28128,-0.18304 -0.36608,-0.24405 -0.54912,-0.54912 -0.54912,-0.91521 0,-1.46432 3.96588,-6.71148 11.89763,-15.74148 7.93176,-9.15203 19.8294,-22.02588 35.69291,-38.62155 l 26.90695,-1.46433 -37.15722,58.02385 -2.37953,3.84385 c -10.61635,16.96176 -15.92453,27.45608 -15.92453,31.48297 0,1.83041 0.54912,3.41676 1.64737,4.75906 1.22027,1.34229 2.68459,2.01344 4.39297,2.01344 10.00622,0 23.06311,-8.66392 39.17068,-25.99175 16.10756,-17.44987 33.37438,-41.67223 51.80046,-72.66709 l 25.2596,-1.46433 z m 57.47473,32.58121 48.68878,-72.66709 1.46433,-2.37952 c 6.95554,-10.25027 10.43331,-16.96176 10.43331,-20.13446 0,-1.70838 -0.4271,-2.92865 -1.28129,-3.66081 -0.73216,-0.85419 -2.01344,-1.28129 -3.84385,-1.28129 -4.02689,0 -9.27405,2.56257 -15.74148,7.68771 -6.34541,5.12513 -15.74149,14.33817 -28.18825,27.63912 -2.56257,2.68459 -5.61324,6.16236 -9.15202,10.43331 -4.27095,5.24716 -7.07757,7.87074 -8.41987,7.87074 -0.48811,0 -0.9152,-0.12203 -1.28128,-0.36608 -0.36608,-0.36608 -0.54912,-0.73216 -0.54912,-1.09825 0,-0.97621 0.61013,-2.31851 1.8304,-4.02689 1.09825,-1.70837 3.35575,-4.51499 6.7725,-8.41986 l 11.89764,-12.99588 c 12.08067,-12.93486 21.17169,-21.59878 27.27304,-25.99175 6.22337,-4.515 11.89763,-6.7725 17.02276,-6.7725 4.27095,0 7.74872,1.52534 10.43332,4.57601 2.80662,3.05067 4.20993,6.89452 4.20993,11.53155 0,5.97933 -1.15926,12.08068 -3.47777,18.30406 -2.19649,6.22337 -7.01655,15.61945 -14.4602,28.18824 l 0.36608,-0.36608 c 13.545,-13.05689 24.16135,-22.88007 31.84905,-29.46953 4.75905,-12.69081 9.33507,-21.29371 13.72804,-25.80871 4.515,-4.63703 10.18926,-6.95554 17.02277,-6.95554 2.44054,0 4.45398,0.61013 6.04033,1.8304 1.70838,1.09825 2.56257,2.50156 2.56257,4.20993 0,4.27095 -7.26061,11.77561 -21.78182,22.51399 -2.44054,1.83041 -4.33196,3.23372 -5.67426,4.20993 -5.49121,4.02689 -9.45709,8.23683 -11.89763,12.6298 -2.31851,4.39297 -3.47777,9.39608 -3.47777,15.00932 0,3.05067 0.85419,5.49121 2.56257,7.32162 1.8304,1.83041 4.0879,2.74561 6.7725,2.74561 6.22337,0 12.50776,-2.98966 18.85317,-8.96899 6.34541,-5.97932 9.57912,-8.96898 9.70115,-8.96898 0.73216,0.12203 1.28128,0.36608 1.64736,0.73216 0.36608,0.24405 0.54912,0.61013 0.54912,1.09824 0,2.92865 -3.5998,7.1996 -10.79939,12.81284 -7.07757,5.49121 -13.42297,8.23682 -19.03621,8.23682 -5.12513,0 -9.03,-1.22027 -11.7146,-3.66081 -2.68459,-2.56257 -4.02689,-6.22338 -4.02689,-10.98243 0,-1.83041 0.36608,-4.14892 1.09825,-6.95554 0.73216,-2.80662 1.95243,-6.46743 3.66081,-10.98243 -7.44365,6.22338 -15.68048,14.27716 -24.71048,24.16135 -8.90797,9.76216 -19.15823,21.96486 -30.7508,36.60811 z m 139.4769,-17.57189 c 0,4.515 0.9152,7.87074 2.74561,10.06723 1.95243,2.19649 4.88107,3.29473 8.78594,3.29473 4.14892,0 9.4571,-2.01345 15.92453,-6.04034 6.58946,-4.14891 13.05689,-9.57911 19.40229,-16.2906 8.17581,-8.78595 14.64325,-18.06 19.4023,-27.82216 4.75905,-9.88419 7.13858,-18.85318 7.13858,-26.90696 0,-5.8573 -1.28128,-10.43331 -3.84385,-13.72804 -2.44054,-3.41676 -5.91831,-5.12514 -10.43331,-5.12514 -5.61325,0 -11.59257,2.56257 -17.93797,7.68771 -6.34541,5.00311 -13.11791,12.56878 -20.3175,22.69702 -6.58946,9.39608 -11.7146,18.73115 -15.37541,28.0052 -3.66081,9.27405 -5.49121,17.32784 -5.49121,24.16135 z m 62.96594,-16.47364 c 0.24405,0 0.79318,0.12203 1.64737,0.36608 1.8304,0.48811 3.29472,0.73216 4.39297,0.73216 4.88108,0 10.06723,-1.46432 15.55844,-4.39297 5.61325,-2.92865 10.7994,-6.95555 15.55845,-12.08068 l 4.75905,-5.67426 c 0.24405,-0.24405 0.67115,-0.48811 1.28129,-0.73216 0.73216,-0.24405 1.34229,-0.36608 1.8304,-0.36608 0.48811,0 0.85419,0.18304 1.09824,0.54912 0.24405,0.36608 0.36608,0.9152 0.36608,1.64737 0,0.61013 -0.061,1.03723 -0.18304,1.28128 0,0.24405 -0.061,0.42709 -0.18304,0.54912 l -4.20993,4.9421 c -5.12513,6.22337 -11.04344,11.04344 -17.75493,14.4602 -6.58946,3.29473 -13.42297,4.94209 -20.50054,4.94209 -2.07446,0 -3.78284,-0.061 -5.12513,-0.18304 -1.22027,-0.12203 -2.31852,-0.24405 -3.29473,-0.36608 -8.90797,9.64013 -17.69392,17.08378 -26.35784,22.33095 -8.54189,5.24716 -16.29061,7.87074 -23.24615,7.87074 -8.05378,0 -14.27716,-3.35574 -18.67013,-10.06723 -4.27095,-6.71149 -6.40642,-16.35162 -6.40642,-28.9204 0,-2.31851 0.24405,-4.88108 0.73216,-7.68771 0.48811,-2.80662 1.22027,-5.97932 2.19649,-9.5181 -2.07446,2.68459 -3.78284,4.63702 -5.12514,5.85729 -1.22027,1.09825 -2.25749,1.64737 -3.11168,1.64737 -0.61014,0 -1.03724,-0.061 -1.28129,-0.18304 -0.36608,-0.24405 -0.54912,-0.67115 -0.54912,-1.28129 0,-0.73216 0.9152,-2.31851 2.74561,-4.75905 1.95243,-2.44054 6.16236,-7.26061 12.62979,-14.4602 11.22649,-12.2027 22.63601,-21.72081 34.22858,-28.55432 11.59257,-6.95554 22.14791,-10.43331 31.66602,-10.43331 7.93175,0 14.21614,2.44054 18.85317,7.32162 4.63703,4.88108 6.95554,11.47054 6.95554,19.76837 0,6.46743 -1.64736,13.30095 -4.94209,20.50054 -3.17271,7.19959 -8.35886,15.49743 -15.55845,24.89352 z m 86.57814,-62.59987 c -9.64013,9.76217 -19.58534,20.56156 -29.83561,32.39818 -10.12824,11.83662 -15.92452,17.75493 -17.38885,17.75493 -0.48811,0 -0.9152,-0.12203 -1.28128,-0.36608 -0.36608,-0.36608 -0.54912,-0.73216 -0.54912,-1.09825 0,-1.95243 9.82317,-13.66702 29.46952,-35.14378 8.05379,-8.66391 14.46021,-15.55844 19.21926,-20.68358 2.19649,-5.24716 4.57601,-9.15202 7.13858,-11.71459 2.56257,-2.68459 5.30817,-4.02689 8.23682,-4.02689 2.44054,0 4.27095,0.61013 5.49122,1.8304 1.3423,1.22027 2.01345,2.98967 2.01345,5.30818 0,1.95243 -0.67115,3.72182 -2.01345,5.30817 -1.22027,1.46433 -3.17271,2.80663 -5.8573,4.0269 -0.61013,0.24405 -1.46432,0.54912 -2.56256,0.9152 -4.515,1.70838 -6.7725,5.91831 -6.7725,12.62979 0,4.75906 1.15926,12.1417 3.47777,22.14791 2.31851,10.00621 3.47777,17.44986 3.47777,22.33094 0,3.90487 -0.36608,7.62669 -1.09825,11.16548 -0.73216,3.53878 -1.95243,7.19959 -3.66081,10.98243 5.73527,-5.73527 11.83662,-12.20271 18.30405,-19.4023 6.58946,-7.32162 10.3723,-10.98243 11.34852,-10.98243 0.61013,0 1.09824,0.18304 1.46432,0.54912 0.48811,0.36608 0.73216,0.79317 0.73216,1.28128 0,1.09825 -1.09824,2.98967 -3.29473,5.67426 -2.19649,2.68459 -5.97932,6.83351 -11.34851,12.44676 -12.69081,13.30094 -23.24614,22.51398 -31.66601,27.63912 -8.41987,5.00311 -16.83973,7.50466 -25.25959,7.50466 -7.68771,0 -13.85007,-1.76939 -18.4871,-5.30818 -4.63703,-3.53878 -6.95554,-8.23682 -6.95554,-14.09412 0,-3.1727 1.15926,-5.97932 3.47777,-8.41986 2.31851,-2.44054 5.00311,-3.66081 8.05379,-3.66081 2.19649,0 4.02689,0.73216 5.49121,2.19648 1.58635,1.3423 2.37953,2.98967 2.37953,4.9421 0,1.34229 -0.79318,3.59979 -2.37953,6.7725 -1.46432,3.1727 -2.19648,5.67425 -2.19648,7.50466 0,1.22027 0.48811,2.19649 1.46432,2.92865 1.09825,0.73216 2.50156,1.09824 4.20993,1.09824 8.54189,0 16.96176,-7.74872 25.2596,-23.24615 8.41986,-15.61945 12.62979,-33.98452 12.62979,-55.0952 0,-1.46432 -0.061,-3.1727 -0.18304,-5.12513 -0.12203,-2.07446 -0.30507,-5.06412 -0.54912,-8.96899 z"
       id="text1"
       transform="scale(0.99026354,1.0098322)"
       aria-label="Euros"
       sodipodi:nodetypes="cssssccsscssccsccsscccscscscccscscccccscscscccscsccsscscssscsscssscsscscscccscscccsscsscssccscccscscccscscccscssccsssccsscscccccscscccccccscscccscsccccscscccccscscccscssccscscssccccscscccscsccssccsccccsssccccscccscssccscscccsssccccscscccscscccssssccscssccssssscscscscscc" />
    <text
       xml:space="preserve"
       style="font-style:normal;font-variant:normal;font-weight:normal;font-stretch:normal;font-size:25.4px;line-height:0px;font-family:'Noto Sans Tangsa';-inkscape-font-specification:'Noto Sans Tangsa';writing-mode:lr-tb;direction:ltr;fill:none;stroke:#8c1d20;stroke-width:10;stroke-dasharray:none;stroke-opacity:1"
       x="883.6994"
       y="891.79187"
       id="text3"><tspan
         sodipodi:role="line"
         id="tspan3"
         style="stroke-width:10"
         x="883.6994"
         y="891.79187" /></text>
  </g>
</svg>
